<?xml version="1.0" encoding="UTF-8" standalone="no"?>
<!-- Created with Inkscape (http://www.inkscape.org/) -->

<svg
   version="1.1"
   id="svg2"
   xml:space="preserve"
   width="666.66669"
   height="666.66669"
   viewBox="0 0 666.66669 666.66669"
   sodipodi:docname="youtube radio.ai"
   xmlns:inkscape="http://www.inkscape.org/namespaces/inkscape"
   xmlns:sodipodi="http://sodipodi.sourceforge.net/DTD/sodipodi-0.dtd"
   xmlns="http://www.w3.org/2000/svg"
   xmlns:svg="http://www.w3.org/2000/svg"><defs
     id="defs6"><clipPath
       clipPathUnits="userSpaceOnUse"
       id="clipPath16"><path
         d="M 0,500 H 500 V 0 H 0 Z"
         id="path14" /></clipPath></defs><sodipodi:namedview
     id="namedview4"
     pagecolor="#ffffff"
     bordercolor="#666666"
     borderopacity="1.0"
     inkscape:pageshadow="2"
     inkscape:pageopacity="0.0"
     inkscape:pagecheckerboard="0" /><g
     id="g8"
     inkscape:groupmode="layer"
     inkscape:label="youtube radio"
     transform="matrix(1.3333333,0,0,-1.3333333,0,666.66667)"><g
       id="g10"><g
         id="g12"
         clip-path="url(#clipPath16)"><g
           id="g18"
           transform="translate(149,273.1602)"><path
             d="m 0,0 c 0,-27.5 20.464,-40.647 45.476,-29.216 l 170.813,78.07 c 25.012,11.432 25.012,30.138 0,41.57 L 45.476,168.494 C 20.464,179.925 0,166.778 0,139.278 Z"
             style="fill:#ff7169;fill-opacity:1;fill-rule:nonzero;stroke:none"
             id="path20" /></g><g
           id="g22"
           transform="translate(383.1514,134.457)"><path
             d="m 0,0 c 6.016,-22.449 -12.568,-46.936 -41.51,-54.69 -28.94,-7.754 -57.277,4.159 -63.293,26.608 -6.015,22.45 12.569,46.936 41.509,54.691 C -34.353,34.363 -6.016,22.45 0,0"
             style="fill:#ff7169;fill-opacity:1;fill-rule:nonzero;stroke:none"
             id="path24" /></g><g
           id="g26"
           transform="translate(175.1514,134.457)"><path
             d="m 0,0 c 6.016,-22.449 -12.568,-46.936 -41.51,-54.69 -28.94,-7.754 -57.277,4.159 -63.293,26.608 -6.015,22.45 12.569,46.936 41.509,54.691 C -34.353,34.363 -6.016,22.45 0,0"
             style="fill:#ff7169;fill-opacity:1;fill-rule:nonzero;stroke:none"
             id="path28" /></g><g
           id="g30"
           transform="translate(149,358)"><path
             d="M 0,0 V -227 H 27.346 L 27.612,0 Z"
             style="fill:#ff7169;fill-opacity:1;fill-rule:nonzero;stroke:none"
             id="path32" /></g><g
           id="g34"
           transform="translate(356,343)"><path
             d="M 0,0 V -222 H 27.346 L 27.611,0 Z"
             style="fill:#ff7169;fill-opacity:1;fill-rule:nonzero;stroke:none"
             id="path36" /></g></g></g></g></svg>
